<?xml version="1.0" encoding="UTF-8" standalone="no"?>
<svg
   width="192"
   height="192"
   fill="none"
   viewBox="0 0 192 192"
   version="1.1"
   id="svg6"
   sodipodi:docname="gallery_circles.svg"
   xml:space="preserve"
   inkscape:version="1.2.2 (b0a8486541, 2022-12-01)"
   xmlns:inkscape="http://www.inkscape.org/namespaces/inkscape"
   xmlns:sodipodi="http://sodipodi.sourceforge.net/DTD/sodipodi-0.dtd"
   xmlns="http://www.w3.org/2000/svg"
   xmlns:svg="http://www.w3.org/2000/svg"><defs
     id="defs10" /><sodipodi:namedview
     id="namedview8"
     pagecolor="#ffffff"
     bordercolor="#999999"
     borderopacity="1"
     inkscape:showpageshadow="0"
     inkscape:pageopacity="0"
     inkscape:pagecheckerboard="0"
     inkscape:deskcolor="#d1d1d1"
     showgrid="false"
     inkscape:zoom="1.4197378"
     inkscape:cx="84.522647"
     inkscape:cy="104.2446"
     inkscape:window-width="1920"
     inkscape:window-height="1004"
     inkscape:window-x="0"
     inkscape:window-y="0"
     inkscape:window-maximized="1"
     inkscape:current-layer="svg6" /><g
     id="g1881"
     transform="translate(-199.55663,-17.277763)"><path
       style="fill:#000000;stroke-width:1.14661"
       d="m 288.92159,191.91652 c -6.29256,-1.23722 -14.35577,-5.91469 -17.47963,-10.13993 -2.18844,-2.96003 -3.03095,-3.24673 -9.541,-3.24673 -18.04896,0 -31.58702,-13.40667 -31.6137,-31.30691 -0.0103,-7.1183 -0.22821,-7.72316 -4.12482,-11.46613 -4.80995,-4.6203 -8.85111,-11.90274 -8.12624,-14.64406 0.45057,-1.70397 0.52268,-1.69168 0.64073,0.10927 0.17875,2.72741 4.82596,9.84804 8.98678,13.76986 3.38065,3.18649 3.38065,3.18649 5.47504,-1.45805 5.88749,-13.05611 32.16824,-24.70794 33.30005,-14.76391 1.2023,10.56329 15.44445,23.81121 25.697,23.90312 1.8807,0.0169 2.42862,0.40577 1.65773,1.17666 -5.59074,5.59074 -29.1191,-14.20211 -29.1191,-24.49597 0,-1.99863 -0.83999,-2.25249 -6.30637,-1.90585 -38.00362,2.40988 -32.24451,59.59141 5.91372,58.71658 5.44321,-0.1248 6.14945,0.17349 8.87671,3.74912 12.39727,16.25365 42.1355,11.73132 50.57751,-7.69138 0.89053,-2.04886 1.63143,-2.95123 1.64646,-2.00528 0.015,0.94596 -0.45351,2.48026 -1.04121,3.40958 -4.87628,7.71083 17.74184,2.56362 26.17858,-5.95748 8.47527,-8.55998 13.49132,-30.90467 5.85335,-26.07445 -0.92932,0.5877 -2.46363,1.05624 -3.40958,1.04122 -0.94596,-0.015 -0.0436,-0.75594 2.00527,-1.64647 19.51483,-8.48205 23.94007,-38.18403 7.55134,-50.684319 -3.55714,-2.713166 -3.96227,-3.544666 -3.48698,-7.156803 2.46256,-18.71552 -14.99324,-36.299356 -33.35915,-33.603814 -2.92034,0.428617 -4.14791,-0.245252 -7.78943,-4.275975 -11.06406,-12.246593 -29.06681,-13.484055 -41.48822,-2.851792 -5.94247,5.08653 -5.96774,5.638622 -0.38836,8.485008 14.16102,7.224411 23.44065,31.505765 12.74523,33.349548 -5.20979,0.898113 -8.8748,2.860011 -13.4727,7.211995 -4.46243,4.223755 -5.00248,2.710063 -0.69174,-1.93887 3.17302,-3.421959 11.01037,-7.528182 14.45109,-7.571362 2.12409,-0.02666 2.38056,-0.826003 2.03144,-6.331551 -2.29634,-36.213172 -58.34522,-32.847025 -58.47693,3.51197 -0.0228,6.290331 -0.36654,7.272249 -3.61266,10.319513 -1.97313,1.852238 -5.06898,5.380035 -6.87968,7.839542 -1.81071,2.459508 -3.29219,4.1108 -3.29219,3.66955 0,-1.956911 3.57209,-7.309856 7.21183,-10.807275 3.69567,-3.551153 3.96764,-4.303611 3.96764,-10.976754 0,-18.127727 13.84231,-31.935206 32.01575,-31.935206 6.39729,0 7.43236,-0.337011 10.04667,-3.271131 11.9391,-13.39961 34.1291,-13.873199 46.25371,-0.987168 4.12343,4.382392 4.53344,4.541639 11.72582,4.554268 17.8434,0.03133 30.87337,13.097908 30.93336,31.020246 0.0234,6.992689 0.26457,7.700994 3.41523,10.030374 14.32159,10.588415 14.05874,39.499916 -0.44551,49.003476 -2.30977,1.51342 -2.72163,2.9047 -3.1742,10.7225 -1.03665,17.90771 -12.18121,28.81735 -30.39077,29.75016 -7.13973,0.36575 -8.49962,0.78665 -10.01527,3.09983 -2.81091,4.29 -11.04102,9.28411 -17.61133,10.68675 -6.75722,1.44255 -6.8111,1.44279 -13.82127,0.0644 z m 36.52331,-25.71274 c 0,-0.31532 0.25799,-0.57331 0.5733,-0.57331 0.31532,0 0.57331,0.25799 0.57331,0.57331 0,0.31532 -0.25799,0.5733 -0.57331,0.5733 -0.31531,0 -0.5733,-0.25798 -0.5733,-0.5733 z m 0,-11.46613 c 0,-0.31532 0.25799,-0.5733 0.5733,-0.5733 0.31532,0 0.57331,0.25798 0.57331,0.5733 0,0.31532 -0.25799,0.57331 -0.57331,0.57331 -0.31531,0 -0.5733,-0.25799 -0.5733,-0.57331 z m -2.57305,-5.79864 c -3.78557,-9.23914 -6.85987,-11.08024 -13.16237,-7.88257 -3.0123,1.52833 -7.28283,2.74613 -9.49006,2.7062 -4.01314,-0.0726 -4.01314,-0.0726 1.14661,-1.49964 2.83787,-0.78488 7.17684,-2.48034 9.64216,-3.76769 4.48239,-2.34062 4.48239,-2.34062 7.58063,1.2178 3.79608,4.35991 7.1458,10.71553 6.56537,12.45683 -0.23649,0.70948 -1.26355,-0.74444 -2.28234,-3.23093 z m 14.03917,-5.66748 c 0,-0.31532 0.25799,-0.57331 0.57331,-0.57331 0.31532,0 0.57331,0.25799 0.57331,0.57331 0,0.31531 -0.25799,0.5733 -0.57331,0.5733 -0.31532,0 -0.57331,-0.25799 -0.57331,-0.5733 z m 11.46613,0 c 0,-0.31532 0.25799,-0.57331 0.5733,-0.57331 0.31532,0 0.57331,0.25799 0.57331,0.57331 0,0.31531 -0.25799,0.5733 -0.57331,0.5733 -0.31531,0 -0.5733,-0.25799 -0.5733,-0.5733 z m -19.04107,-2.62795 c -9.30447,-5.11619 -11.02597,-7.7014 -8.25538,-12.39721 1.38719,-2.35111 3.15978,-6.63996 3.9391,-9.53077 1.41693,-5.256 1.41693,-5.256 1.49433,-1.15053 0.0425,2.25801 -1.20433,6.63715 -2.77085,9.73144 -3.1513,6.22464 -1.71604,8.46007 8.54074,13.30232 2.22953,1.05257 3.27973,1.9339 2.33378,1.95852 -0.94596,0.0246 -3.32274,-0.83658 -5.28172,-1.91377 z m -46.6025,-14.66088 c -6.39368,-6.10002 -7.05985,-7.56407 -1.51863,-3.33757 3.19491,2.43688 8.48854,8.66315 7.27812,8.56039 -0.1722,-0.0146 -2.76396,-2.36489 -5.75949,-5.22282 z m -66.03582,-9.65657 c 0,-1.57659 0.26024,-2.22156 0.57833,-1.43326 0.31808,0.78829 0.31808,2.07823 0,2.86653 -0.31809,0.78829 -0.57833,0.14332 -0.57833,-1.43327 z m 108.90328,-6.98319 c -0.45189,-8.59544 -9.61011,-20.570209 -18.77982,-24.555441 -2.0544,-0.892855 -3.06974,-1.643569 -2.25632,-1.668253 8.89935,-0.270063 23.41157,17.354004 21.72016,26.377604 -0.52787,2.81614 -0.52787,2.81614 -0.68402,-0.15391 z M 216.60723,108.7776 c 0.055,-1.33574 0.32672,-1.60743 0.69274,-0.69275 0.33123,0.82771 0.29049,1.81666 -0.0905,2.19768 -0.38101,0.38101 -0.65201,-0.29621 -0.60222,-1.50493 z m 1.14661,-4.58645 c 0.055,-1.33574 0.32672,-1.60743 0.69274,-0.69275 0.33124,0.82771 0.2905,1.81666 -0.0905,2.19768 -0.381,0.38101 -0.65201,-0.29621 -0.60222,-1.50493 z m 92.78509,-0.86532 c -3.50527,-3.18952 -7.421,-7.638725 -6.72281,-7.638725 0.28175,0 2.79105,2.321891 5.5762,5.159755 5.33082,5.43171 6.01334,6.90731 1.14661,2.47897 z m -27.46928,-3.912233 c 2.71037,-2.995526 5.09797,-5.661403 5.30579,-5.924169 0.20783,-0.262764 0.37786,0.03134 0.37786,0.653572 0,1.62923 -7.97801,10.71701 -9.40828,10.71701 -0.66181,0 1.01427,-2.45089 3.72463,-5.446413 z m -16.10199,0.859963 c 0,-0.840849 0.34398,-1.184844 0.76441,-0.764416 0.42042,0.420429 0.42042,1.108396 0,1.528816 -0.42043,0.42043 -0.76441,0.0765 -0.76441,-0.7644 z m 0.46381,-10.496681 c -0.50689,-0.820172 -0.31453,-1.012531 0.50564,-0.505637 1.32176,0.816893 1.77458,1.829411 0.81814,1.829411 -0.2781,0 -0.8738,-0.595699 -1.32378,-1.323774 z m -8.4901,-4.982595 c 0,-0.315319 0.25799,-0.573306 0.57331,-0.573306 0.31532,0 0.5733,0.257987 0.5733,0.573306 0,0.315318 -0.25798,0.573306 -0.5733,0.573306 -0.31532,0 -0.57331,-0.257988 -0.57331,-0.573306 z m 39.36703,-2.484328 c 0.42043,-0.420424 1.10839,-0.420424 1.52882,0 0.42042,0.420425 0.0765,0.764409 -0.76441,0.764409 -0.84085,0 -1.18483,-0.343984 -0.76441,-0.764409 z"
       id="path1856" /><circle
       style="fill:#ffffff;fill-opacity:0;stroke:#000000;stroke-width:19.9321;stroke-dasharray:none"
       id="path995"
       cx="294.83472"
       cy="65.141808"
       r="21.562439" /><circle
       style="fill:#ffffff;fill-opacity:0;stroke:#000000;stroke-width:19.9321;stroke-dasharray:none"
       id="circle1858"
       cx="330.22934"
       cy="78.55896"
       r="21.562439" /><circle
       style="fill:#ffffff;fill-opacity:0;stroke:#000000;stroke-width:19.9321;stroke-dasharray:none"
       id="circle1860"
       cx="341.69547"
       cy="112.95734"
       r="21.562439" /><circle
       style="fill:#ffffff;fill-opacity:0;stroke:#000000;stroke-width:19.9321;stroke-dasharray:none"
       id="circle1862"
       cx="330.22934"
       cy="147.35571"
       r="21.562439" /><circle
       style="fill:#ffffff;fill-opacity:0;stroke:#000000;stroke-width:19.9321;stroke-dasharray:none"
       id="circle1864"
       cx="295.83099"
       cy="158.82184"
       r="21.562439" /><circle
       style="fill:#ffffff;fill-opacity:0;stroke:#000000;stroke-width:19.9321;stroke-dasharray:none"
       id="circle1866"
       cx="263.72583"
       cy="145.06248"
       r="21.562439" /><circle
       style="fill:#ffffff;fill-opacity:0;stroke:#000000;stroke-width:19.9321;stroke-dasharray:none"
       id="circle1868"
       cx="247.67325"
       cy="112.95734"
       r="21.562439" /><circle
       style="fill:#ffffff;fill-opacity:0;stroke:#000000;stroke-width:19.9321;stroke-dasharray:none"
       id="circle1870"
       cx="261.43262"
       cy="78.558968"
       r="21.562439" /></g></svg>
